<?xml version="1.0" encoding="utf-8"?>
<!-- Generator: Adobe Illustrator 19.0.0, SVG Export Plug-In . SVG Version: 6.00 Build 0)  -->
<svg version="1.1" id="Capa_1" xmlns="http://www.w3.org/2000/svg" xmlns:xlink="http://www.w3.org/1999/xlink" x="0px" y="0px"
	 viewBox="-134 258.9 325 325" style="enable-background:new -134 258.9 325 325;" xml:space="preserve">
<style type="text/css">
	.st0{fill:#FFFFFF;}
</style>
<g>
	<path class="st0" d="M-49.2,469.8c-4.6-3.7-10.5-5.7-16.4-5.7c-8.1,0-15.6,3.6-20.6,9.8c-4.4,5.5-6.4,12.3-5.6,19.2
		c0.8,7,4.3,13.2,9.8,17.6c4.6,3.7,10.5,5.7,16.4,5.7c8.1,0,15.6-3.6,20.6-9.8c4.4-5.5,6.4-12.3,5.6-19.2
		C-40.2,480.4-43.7,474.2-49.2,469.8z M-54.4,499.1c-2.7,3.4-6.8,5.4-11.2,5.4c-3.3,0-6.4-1.1-9-3.1c-3-2.4-4.9-5.7-5.3-9.5
		c-0.4-3.7,0.7-7.4,3-10.4c2.7-3.4,6.8-5.3,11.2-5.3c3.3,0,6.4,1.1,9,3.1c3,2.4,4.9,5.7,5.3,9.5C-50.9,492.4-52,496.1-54.4,499.1z"
		/>
	<path class="st0" d="M56.3,408.3c4,0,7.8-0.9,11.4-2.6c6.4-3,11.1-8.4,13.5-15c2.3-6.6,1.9-13.7-1.2-19.9
		c-4.4-9-13.7-14.8-23.7-14.8c-4,0-7.8,0.9-11.4,2.6c-6.4,3-11.1,8.4-13.5,15c-2.3,6.6-1.9,13.7,1.2,20
		C36.9,402.5,46.3,408.3,56.3,408.3z M42.7,377.5c1.3-3.6,3.8-6.5,7.3-8.1c2-0.9,4.1-1.4,6.2-1.4c5.5,0,10.6,3.2,12.9,8
		c1.6,3.4,1.9,7.2,0.6,10.7c-1.3,3.6-3.8,6.5-7.3,8.1c-2,0.9-4.1,1.4-6.2,1.4c-5.5,0-10.6-3.2-13-8.1
		C41.7,384.9,41.5,381.1,42.7,377.5z"/>
	<path class="st0" d="M-9,365.9c1.9,0.4,3.9,0.7,5.9,0.7c12.4,0,22.9-8.4,25.7-20.3c1.6-6.8,0.4-13.8-3.4-19.7
		c-3.7-5.9-9.6-10.1-16.5-11.6c-1.9-0.4-3.9-0.7-5.9-0.7c-12.3,0-22.9,8.4-25.6,20.3c-1.6,6.8-0.4,13.8,3.3,19.7
		C-21.7,360.2-15.9,364.4-9,365.9z M-17.1,337.3c1.5-6.5,7.2-11,13.9-11c1.1,0,2.2,0.1,3.2,0.4c3.8,0.8,6.9,3.1,9,6.3
		c2,3.2,2.6,7,1.8,10.6c-1.5,6.4-7.3,11-14,11c-1.1,0-2.2-0.1-3.2-0.4c-3.8-0.8-6.9-3.1-9-6.3C-17.3,344.7-17.9,340.9-17.1,337.3z"
		/>
	<path class="st0" d="M-56.6,380.9c5.5-4.4,9-10.6,9.8-17.6c0.8-6.9-1.2-13.8-5.6-19.2c-5-6.2-12.5-9.8-20.6-9.8
		c-5.9,0-11.7,2-16.4,5.7c-5.5,4.4-9,10.6-9.8,17.5c-0.8,7,1.2,13.8,5.6,19.3c5,6.2,12.5,9.8,20.6,9.8
		C-67.1,386.6-61.3,384.6-56.6,380.9z M-84.3,369.2c-2.4-3-3.5-6.6-3-10.4c0.4-3.8,2.3-7.1,5.3-9.5c2.6-2,5.7-3.1,8.9-3.1
		c4.4,0,8.5,2,11.2,5.3c2.4,2.9,3.4,6.6,3,10.4c-0.4,3.8-2.3,7.1-5.3,9.5c-2.6,2-5.6,3.1-8.9,3.1C-77.4,374.6-81.5,372.6-84.3,369.2
		z"/>
	<path class="st0" d="M188.7,322.2c-1-1-2.9-2.3-5.8-2.3c-3.4,0-12.5,0-67.7,47c-1.1,0.9-2.2,1.9-3.4,2.9
		c-9.9-25.7-27.2-48.7-49.5-65.3c-25.6-19-56.1-29.1-88.2-29.1c0,0,0,0,0,0c-21.7,0-48,7.6-68.7,19.7C-120,310-134,330-134,351.3
		c0,25.7,14.5,36.5,26.2,45.2c9.5,7.1,17,12.6,17,24.8c0,12.2-7.5,17.8-17,24.8c-11.7,8.6-26.2,19.4-26.2,45.2
		c0,21.3,14,41.3,39.4,56.2c20.7,12.2,47.1,19.8,68.7,19.8c0,0,0,0,0,0c39.3,0,76.3-15.2,104-42.7c27.4-27.2,42.7-63.2,43.1-101.7
		c9.3-10.6,18.3-21.1,26.6-31.1c14.1-17,24.9-31,32.2-41.7C189.8,336.2,194,327.5,188.7,322.2z M69.8,516.1
		c-25.5,25.3-59.5,39.2-95.6,39.2c0,0,0,0,0,0c-38.7,0-96.1-26.9-96.1-64c0-19.7,10.4-27.4,21.3-35.5c10.3-7.6,21.9-16.2,21.9-34.5
		c0-18.3-11.6-26.9-21.9-34.5c-11-8.1-21.3-15.8-21.3-35.5c0-22.8,21-38.5,33.5-45.9c18.7-11,43.3-18.1,62.6-18.1c0,0,0,0,0,0
		c29.5,0,57.5,9.3,81,26.7c21.7,16.1,38.3,38.8,47,64c-26,22.7-54.2,48.9-75.2,70c-34.9,4.5-39.6,27.7-43.1,44.8
		c-3,14.5-4.9,21.6-16.1,22.5c-2.8,0.2-5,2.3-5.4,5c-0.4,2.7,1.1,5.4,3.6,6.5c0.7,0.3,17.9,7.3,37.9,7.3c0,0,0,0,0,0
		c14,0,25.9-3.4,35.6-10.1c11.9-8.2,20-21.3,24-38.8c13.7-13.9,29.4-30.6,44.9-47.8C104.8,467.2,91.5,494.7,69.8,516.1z M51.5,484.3
		c-6.4,25.2-22.4,38-47.6,38c0,0,0,0,0,0c-6.7,0-13-0.9-18.4-2c6.4-6.5,8.4-16.3,10.1-24.9c3.3-16.2,6.4-31.5,31.9-35.2L51.5,484.3z
		 M134.3,389.5c-23.8,28.3-52.6,60.2-76.3,84.4l-3.7-3.7l-16.2-16.3c21.5-21.4,49.1-46.9,74.8-69.2l0,0c3-2.6,6-5.2,8.9-7.7
		c29.8-25.5,45.5-36.5,53.5-41.4C170.6,343.6,159.6,359.4,134.3,389.5z"/>
</g>
</svg>
